PathFileType	4	(X/Y/Z)	OpenSim_Sub11_EMGPreOp_Accel.trc
DataRate	CameraRate	NumFrames	NumMarkers	Units	OrigDataRate	OrigDataStartFrame	OrigNumFrames
100	100	24	8	m	100	4414	5885
Frame#	Time	torso_imu_offset_imu	pelvis_imu_offset_imu	tibia_r_imu_offset_imu	femur_r_imu_offset_imu	tibia_l_imu_offset_imu	femur_l_imu_offset_imu	toes_r_imu_offset_imu	toes_l_imu_offset_imu
				X1	Y1	Z1	X2	Y2	Z2	X3	Y3	Z3	X4	Y4	Z4	X5	Y5	Z5	X6	Y6	Z6	X7	Y7	Z7	X8		Y8	Z8	

4414	44.13000000	9.07497680	-0.02745421	4.07089011	9.22137816	1.36762799	3.20102802	9.90003990	0.63641704	1.07319267	9.39844332	1.11225969	-2.70998594	9.16344949	-4.45052088	1.48742666	8.06766074	3.37784727	0.84155039	4.62432338	-0.42812235	8.62160173	10.76817658	-1.74653698	6.14698719
4415	44.14000000	9.17163107	-0.05953253	4.07019446	9.17238778	1.41840589	3.12570017	9.88838178	0.84657343	1.13981137	9.44746265	1.17305740	-2.73087333	9.08734850	-4.21086845	1.74365570	8.34636655	2.98087862	0.77205619	4.83550077	-0.43693278	8.57293184	12.08114677	-1.70513836	6.02094271
4416	44.15000000	9.17590248	-0.07051037	4.08159426	9.08034526	1.42372075	3.05742459	9.87330886	1.01681611	1.13168499	9.44459030	1.18535266	-2.76248656	9.26352748	-3.56543720	1.75730548	8.36938982	2.88357378	0.55614549	4.45632153	-0.52952688	8.71446775	12.96066224	-1.87317166	5.53314838
4417	44.16000000	9.14661315	-0.08122931	4.05242084	8.99537840	1.47930004	3.01392591	9.88189496	1.01756849	1.10620609	9.33311138	1.25939858	-2.77054778	9.75218301	-3.13016813	1.41441955	8.34772761	3.16968688	0.42100130	5.26736467	-0.28934792	8.35186186	13.23193904	-2.35108144	4.68516597
4418	44.17000000	9.10351977	-0.10428765	4.07562078	8.92015819	1.48889800	2.95464437	9.88269938	0.91045698	0.93315202	9.29818076	1.37677650	-2.71176827	10.41206766	-2.86586693	1.11020709	8.45823458	3.50433940	0.47792824	4.76145927	-0.37845000	8.55201498	13.33169689	-2.62071965	3.81971133
4419	44.18000000	9.11104209	-0.20221431	4.06237993	8.88801883	1.51365867	2.93198466	9.93056920	0.94400357	0.87230402	9.31714952	1.44588917	-2.70892816	11.01312471	-2.46015630	0.79313877	8.55421898	3.80252670	0.55850538	4.59508605	-0.54611548	8.67263408	13.33974538	-3.35763571	2.83262386
4420	44.19000000	9.05942926	-0.29359187	4.14366987	8.74933213	1.60304289	2.95831008	9.97319909	1.00107621	0.98237785	9.33577398	1.51174715	-2.73956224	11.33856119	-2.16605148	0.49836867	8.57561236	4.22828916	0.60136141	4.54920943	-0.58552439	8.59188277	13.59824074	-4.15881880	1.76788743
4421	44.20000000	9.04968353	-0.19073044	4.26039596	8.65453404	1.70351432	3.02656491	9.92561202	0.90709122	1.06075870	9.28152993	1.55283118	-2.70513058	11.51698400	-1.85742646	0.28878594	8.58110477	4.75835797	0.69892487	4.85037974	-0.52909804	8.52035571	14.05030068	-4.60899778	0.64811945
4422	44.21000000	9.03856821	-0.21880633	4.22988938	8.72410623	1.72877195	3.02136908	9.81355909	0.71310899	0.98528553	9.29859770	1.68304207	-2.80157755	11.37071869	-1.46347834	0.35532377	8.66067039	5.26265705	0.99691788	4.57922854	-0.62922009	8.54778643	14.95964122	-4.30704619	-0.43394276
4423	44.22000000	9.01530947	-0.31982516	4.21081717	8.86720615	1.65718150	2.99814081	9.82874607	0.62012583	1.00617162	9.28087992	1.78158007	-2.83348453	10.89905269	-1.02434737	0.73860124	8.69755756	5.68671730	1.29237355	4.61799317	-0.60163123	8.54645350	15.33391774	-3.73592242	-1.68606180
4424	44.23000000	8.99485529	-0.26621844	4.30465532	9.10875184	1.58063447	2.99753606	9.88481545	0.57734600	0.98805809	9.26651841	1.82362608	-2.89312871	10.44696613	-0.73348993	1.21908006	8.83680802	6.03827048	1.57902470	4.86174158	-0.50951529	8.38749236	15.17544907	-3.16847776	-2.66840555
4425	44.24000000	8.99755456	-0.14735627	4.26569936	9.30330933	1.43824132	2.94973160	9.93667089	0.63144117	0.87579582	9.23921631	1.88210179	-2.94830368	9.92982005	-0.85908763	1.17351940	9.12165265	6.38399675	1.71804656	4.60972211	-0.56949776	8.60242358	15.25155622	-2.97313584	-3.23230095
4426	44.25000000	8.99951807	-0.12822993	4.25089271	9.42764984	1.34013602	2.87254927	9.98479769	0.79366177	0.83819015	9.21017918	1.82126729	-3.05880305	9.44841848	-1.27877606	0.90310358	9.30279464	6.41766595	1.53179611	4.72591459	-0.51933682	8.50591431	15.59186172	-2.86279003	-3.15693894
4427	44.26000000	9.07955632	-0.09039856	4.39710537	9.48580198	1.35856969	2.80165702	9.98024913	0.97340887	0.79007541	9.20832567	1.70630527	-3.03134880	9.09867340	-1.86695655	0.74023355	9.40667847	6.08684456	1.10231883	4.58368342	-0.58411228	8.61624171	15.88681344	-2.51389526	-2.74994648
4428	44.27000000	9.02677214	-0.02894467	4.50754029	9.51186380	1.35154949	2.74202748	9.95314024	1.03767304	0.77608053	9.20095767	1.72064203	-3.06645163	8.79842453	-2.78556551	0.58460679	9.29454676	5.42787722	0.62388056	5.20696112	-0.45917378	8.30491248	15.85849675	-2.84580328	-1.22039818
4429	44.28000000	9.05313124	-0.02472409	4.56068720	9.53198480	1.36541522	2.68932104	9.80423884	1.12972459	0.73974132	9.11137774	1.57558080	-3.07561172	8.66787162	-4.01851028	0.41524664	8.87454575	4.45915461	0.25581662	4.86244090	-0.52172879	8.41165352	13.54653207	-5.85370713	1.06650880
4430	44.29000000	9.10460106	-0.02826175	4.65058701	9.56948671	1.39011070	2.79437000	9.82441022	1.39493790	0.74694671	9.07128546	1.49540951	-3.19263349	8.79748898	-5.29733981	0.37298925	8.42890581	3.50115535	-0.14871097	4.69329496	-0.49831861	8.65405143	11.01610912	-8.07342400	3.20897277
4431	44.30000000	9.16442478	0.00047982	4.78682099	9.64611350	1.33354585	2.98633575	9.97648113	1.67656460	0.85702890	9.10469758	1.42865259	-3.39161963	8.93297674	-5.98180500	0.63085073	8.26545988	2.56988285	-0.57922902	4.43994761	-0.67469641	8.73650756	8.24509908	-1.24737088	11.36042917
4432	44.31000000	9.26393981	-0.01992210	4.87730410	9.68445336	1.27126245	3.60007111	10.10273528	1.66707074	0.89711208	9.09617889	1.44380898	-3.33895575	9.68332888	-4.97466596	1.61601218	8.47047516	1.58410636	-0.75900515	4.91007661	-0.51996966	8.61221981	-2.68935104	6.38716406	31.06469943
4433	44.32000000	9.49409385	-0.05710905	5.08453317	9.92282663	1.10351495	4.46784246	10.20153951	1.43928412	0.58860846	9.28666546	1.56545620	-3.35733254	10.97275026	0.09241415	4.48637325	9.59950138	0.52534754	-0.44705683	4.64726709	-0.46267262	8.73389299	-9.49888433	-2.48335505	41.06814758
4434	44.33000000	9.74981582	-0.07545481	5.26311240	10.29403990	0.61441312	4.39986542	10.48112816	0.98890442	0.44205125	9.53211154	1.70340848	-3.29283555	12.74866725	8.39064205	7.69238337	11.89678505	-0.01348111	0.10641834	4.79048200	-0.49319038	8.71175807	-9.44132800	-7.77422891	5.83873494
4435	44.34000000	9.70781308	-0.08811401	5.12520106	10.33483764	0.13677999	3.73865293	10.56019510	0.51610912	0.68152062	9.30869246	1.92398656	-3.13922456	14.95424110	11.99373826	6.93872861	13.62613895	0.37883467	0.27704677	4.81528610	-0.68568038	8.41688507	0.36369605	5.57395157	0.36792871
4436	44.35000000	9.39248657	-0.25633064	4.72793282	9.91238350	0.32827454	3.79963061	10.03121588	0.45474314	1.03254103	8.73777218	1.88916736	-3.07591810	14.00157447	9.43338591	7.00906780	12.81392002	0.73098423	0.88291498	4.79993128	-0.66063167	8.50405622	22.31492084	7.27745438	21.05494796
4437	44.36000000	9.06971497	-0.36468035	4.35115781	9.55320869	0.79748833	3.96107729	9.49873522	1.03869211	1.21178735	8.92519822	1.77935646	-3.09140824	8.40715071	5.75461916	3.83614616	11.62271058	1.04839804	2.46938276	4.82591600	-0.46625818	8.66888738	4.16076336	-6.71474886	-4.21698716
